<svg width="50" height="50" viewBox="0 0 50 50" fill="none" xmlns="http://www.w3.org/2000/svg">
<circle cx="25" cy="25" r="21.875" fill="white"/>
<path d="M41.823 38.9532C44.0685 36.2534 45.6303 33.0528 46.3762 29.6223C47.1222 26.1917 47.0303 22.6321 46.1083 19.2445C45.1864 15.8569 43.4615 12.7411 41.0797 10.1605C38.6978 7.57999 35.729 5.61066 32.4245 4.41915C29.1199 3.22763 25.5767 2.84898 22.0947 3.31523C18.6127 3.78148 15.2943 5.07891 12.4203 7.09777C9.54618 9.11663 7.20096 11.7975 5.58299 14.9137C3.96503 18.0298 3.12193 21.4895 3.12501 25.0001C3.12619 30.1035 4.9259 35.0435 8.20833 38.9532L8.17705 38.9798C8.28651 39.111 8.4116 39.2235 8.52418 39.3532C8.6649 39.5142 8.81657 39.6657 8.96199 39.822C9.3998 40.297 9.85012 40.7532 10.3223 41.1814C10.4662 41.3126 10.6147 41.4345 10.7601 41.5595C11.2605 41.9907 11.7749 42.4001 12.3081 42.7814C12.3769 42.8282 12.4395 42.8892 12.5083 42.9376V42.9189C16.1704 45.4941 20.5392 46.8762 25.0172 46.8762C29.4952 46.8762 33.864 45.4941 37.5261 42.9189V42.9376C37.5949 42.8892 37.6559 42.8282 37.7263 42.7814C38.2579 42.3985 38.7739 41.9907 39.2743 41.5595C39.4197 41.4345 39.5682 41.311 39.7121 41.1814C40.1843 40.7517 40.6346 40.297 41.0724 39.822C41.2178 39.6657 41.3679 39.5142 41.5102 39.3532C41.6213 39.2235 41.7479 39.111 41.8574 38.9782L41.823 38.9532ZM25.0156 12.5001C26.4073 12.5001 27.7677 12.9125 28.9248 13.6851C30.0819 14.4577 30.9838 15.5558 31.5163 16.8406C32.0489 18.1254 32.1882 19.5392 31.9167 20.9031C31.6452 22.267 30.9751 23.5199 29.991 24.5032C29.007 25.4865 27.7533 26.1562 26.3884 26.4275C25.0234 26.6988 23.6087 26.5596 22.323 26.0274C21.0373 25.4952 19.9384 24.594 19.1652 23.4377C18.392 22.2814 17.9794 20.922 17.9794 19.5314C17.9794 17.6666 18.7207 15.8781 20.0402 14.5595C21.3598 13.2409 23.1495 12.5001 25.0156 12.5001ZM12.5177 38.9532C12.5448 36.9016 13.3791 34.9432 14.8402 33.5016C16.3012 32.06 18.2715 31.2512 20.3248 31.2501H29.7065C31.7598 31.2512 33.73 32.06 35.1911 33.5016C36.6522 34.9432 37.4865 36.9016 37.5136 38.9532C34.0844 42.0413 29.6318 43.7502 25.0156 43.7502C20.3994 43.7502 15.9469 42.0413 12.5177 38.9532Z" fill="black"/>
</svg>
